<svg xmlns="http://www.w3.org/2000/svg" width="172" height="39" viewBox="0 0 172 39">
  <g fill="none" fill-rule="evenodd" transform="translate(2)">
    <g fill-rule="nonzero" transform="translate(.906 .688)">
      <path fill="#635954" d="M9.59375,24.625 C11.6666667,24.625 13.3046875,23.8333333 14.5078125,22.25 C15.7109375,20.6666667 16.3125,18.4322917 16.3125,15.546875 C16.3125,12.7447917 15.7291667,10.5390625 14.5625,8.9296875 C13.3958333,7.3203125 11.78125,6.515625 9.71875,6.515625 C7.53125,6.515625 5.88020833,7.38020833 4.765625,9.109375 L4.765625,9.109375 L4.578125,9.109375 C4.703125,7.52604167 4.765625,6.375 4.765625,5.65625 L4.765625,5.65625 L4.765625,0 L0,0 L0,24.3125 L3.640625,24.3125 L4.4375,22.390625 L4.765625,22.390625 C5.93229167,23.8802083 7.54166667,24.625 9.59375,24.625 Z M8.25,20.765625 C7.04166667,20.765625 6.15885417,20.359375 5.6015625,19.546875 C5.04427083,18.734375 4.765625,17.390625 4.765625,15.515625 L4.765625,15.515625 L4.765625,15 C4.78645833,13.3333333 5.06770833,12.1380208 5.609375,11.4140625 C6.15104167,10.6901042 7.01041667,10.328125 8.1875,10.328125 C9.19791667,10.328125 9.99479167,10.7578125 10.578125,11.6171875 C11.1614583,12.4765625 11.453125,13.765625 11.453125,15.484375 C11.453125,17.203125 11.1640625,18.5130208 10.5859375,19.4140625 C10.0078125,20.3151042 9.22916667,20.765625 8.25,20.765625 Z M66.578125,24.3125 L66.578125,18.875 L68.625,17.234375 L73.65625,24.3125 L79.15625,24.3125 L71.796875,14.421875 L78.734375,6.84375 L73.359375,6.84375 L68.46875,12.15625 L66.390625,14.8125 L66.328125,14.8125 L66.578125,10.84375 L66.578125,0 L61.8125,0 L61.8125,24.3125 L66.578125,24.3125 Z"/>
      <path fill="#728FA7" d="M96.140625,24.3125 L96.140625,20.3125 L86.875,20.3125 L86.875,1.46875 L82.03125,1.46875 L82.03125,24.3125 L96.140625,24.3125 Z M107.09375,24.625 C109.770833,24.625 111.859375,23.8229167 113.359375,22.21875 C114.859375,20.6145833 115.609375,18.390625 115.609375,15.546875 C115.609375,13.7135417 115.265625,12.1145833 114.578125,10.75 C113.890625,9.38541667 112.90625,8.33854167 111.625,7.609375 C110.34375,6.88020833 108.864583,6.515625 107.1875,6.515625 C104.489583,6.515625 102.395833,7.30729167 100.90625,8.890625 C99.4166667,10.4739583 98.671875,12.6927083 98.671875,15.546875 C98.671875,17.3802083 99.015625,18.984375 99.703125,20.359375 C100.390625,21.734375 101.375,22.7890625 102.65625,23.5234375 C103.9375,24.2578125 105.416667,24.625 107.09375,24.625 Z M107.15625,20.796875 C105.875,20.796875 104.950521,20.3541667 104.382812,19.46875 C103.815104,18.5833333 103.53125,17.2760417 103.53125,15.546875 C103.53125,13.8072917 103.8125,12.5078125 104.375,11.6484375 C104.9375,10.7890625 105.854167,10.359375 107.125,10.359375 C108.40625,10.359375 109.328125,10.7916667 109.890625,11.65625 C110.453125,12.5208333 110.734375,13.8177083 110.734375,15.546875 C110.734375,17.2864583 110.455729,18.5963542 109.898438,19.4765625 C109.341146,20.3567708 108.427083,20.796875 107.15625,20.796875 Z M128.59375,24.3125 L135.25,6.84375 L130.265625,6.84375 L126.90625,16.796875 C126.5,18.0052083 126.265625,19.1979167 126.203125,20.375 L126.203125,20.375 L126.078125,20.375 C125.973958,19.0729167 125.75,17.8802083 125.40625,16.796875 L125.40625,16.796875 L122.03125,6.84375 L117.046875,6.84375 L123.703125,24.3125 L128.59375,24.3125 Z M145.65625,24.625 C147.020833,24.625 148.177083,24.5234375 149.125,24.3203125 C150.072917,24.1171875 150.963542,23.8072917 151.796875,23.390625 L151.796875,23.390625 L151.796875,19.703125 C150.776042,20.1822917 149.796875,20.53125 148.859375,20.75 C147.921875,20.96875 146.927083,21.078125 145.875,21.078125 C144.520833,21.078125 143.46875,20.6979167 142.71875,19.9375 C141.96875,19.1770833 141.567708,18.1197917 141.515625,16.765625 L141.515625,16.765625 L152.78125,16.765625 L152.78125,14.453125 C152.78125,11.9739583 152.09375,10.03125 150.71875,8.625 C149.34375,7.21875 147.421875,6.515625 144.953125,6.515625 C142.369792,6.515625 140.346354,7.31510417 138.882812,8.9140625 C137.419271,10.5130208 136.6875,12.7760417 136.6875,15.703125 C136.6875,18.546875 137.479167,20.7447917 139.0625,22.296875 C140.645833,23.8489583 142.84375,24.625 145.65625,24.625 Z M148.3125,13.59375 L141.625,13.59375 C141.708333,12.4166667 142.036458,11.5078125 142.609375,10.8671875 C143.182292,10.2265625 143.973958,9.90625 144.984375,9.90625 C145.994792,9.90625 146.796875,10.2265625 147.390625,10.8671875 C147.984375,11.5078125 148.291667,12.4166667 148.3125,13.59375 L148.3125,13.59375 Z M161.421875,24.3125 L161.421875,15.421875 C161.421875,14.015625 161.846354,12.921875 162.695312,12.140625 C163.544271,11.359375 164.729167,10.96875 166.25,10.96875 C166.802083,10.96875 167.270833,11.0208333 167.65625,11.125 L167.65625,11.125 L168.015625,6.65625 C167.588542,6.5625 167.052083,6.515625 166.40625,6.515625 C165.322917,6.515625 164.320312,6.81510417 163.398438,7.4140625 C162.476562,8.01302083 161.744792,8.80208333 161.203125,9.78125 L161.203125,9.78125 L160.96875,9.78125 L160.265625,6.84375 L156.65625,6.84375 L156.65625,24.3125 L161.421875,24.3125 Z"/>
    </g>
    <path stroke="#635954" stroke-linecap="round" stroke-linejoin="round" stroke-width="4" d="M53.4553916,10.5638103 C51.826912,8.92227163 49.6177607,8 47.314202,8 C45.0106433,8 42.8014921,8.92227163 41.1730124,10.5638103 L39.4995778,12.249873 L37.8261431,10.5638103 C34.4344577,7.146531 28.9354493,7.14653104 25.543764,10.5638104 C22.1520787,13.9810898 22.1520787,19.5215944 25.5437639,22.9388739 L27.2171986,24.6249365 L39.4995778,37 L51.7819569,24.6249365 L53.4553916,22.9388739 C55.0846358,21.2981055 56,19.0722837 56,16.7513421 C56,14.4304005 55.0846358,12.2045787 53.4553916,10.5638103 Z"/>
  </g>
</svg>
