<svg xmlns="http://www.w3.org/2000/svg">
  <symbol id="list" viewBox="0 0 24 24">
    <title>Listado</title>
    <g fill="none" stroke="currentColor" stroke-width="2" stroke-linecap="round" stroke-linejoin="round">
      <line x1="8" y1="6" x2="21" y2="6"></line>
      <line x1="8" y1="12" x2="21" y2="12"></line>
      <line x1="8" y1="18" x2="21" y2="18"></line>
      <line x1="3" y1="6" x2="3" y2="6"></line>
      <line x1="3" y1="12" x2="3" y2="12"></line>
      <line x1="3" y1="18" x2="3" y2="18"></line>
    </g>
  </symbol>
  <symbol id="search" viewBox="0 0 24 24">
    <title>Buscar</title>
    <g fill="none" stroke="currentColor" stroke-width="2" stroke-linecap="round" stroke-linejoin="round">
      <circle cx="11" cy="11" r="8"></circle>
      <line x1="21" y1="21" x2="16.65" y2="16.65"></line>
    </g>
  </symbol>
  <symbol id="edit" viewBox="0 0 24 24">
    <title>Nuevo</title>
    <g fill="none" stroke="currentColor" stroke-width="2" stroke-linecap="round" stroke-linejoin="round">
      <path d="M19 21H5a2 2 0 0 1-2-2V5a2 2 0 0 1 2-2h11l5 5v11a2 2 0 0 1-2 2z"></path>
      <polyline points="17 21 17 13 7 13 7 21"></polyline>
      <polyline points="7 3 7 8 15 8"></polyline>
    </g>
  </symbol>
  <symbol id="favs" viewBox="0 0 24 24">
    <title>Favoritos</title>
    <g fill="none" stroke="currentColor" stroke-width="2" stroke-linecap="round" stroke-linejoin="round">
      <path d="M19 21l-7-5-7 5V5a2 2 0 0 1 2-2h10a2 2 0 0 1 2 2z"></path>
    </g>
  </symbol>
</svg>
